<mxfile host="app.diagrams.net" agent="Mozilla/5.0 (Windows NT 10.0; Win64; x64) AppleWebKit/537.36 (KHTML, like Gecko) Chrome/135.0.0.0 Safari/537.36 Edg/135.0.0.0" version="26.2.14">
  <diagram name="Page-3" id="NgdrA4JyHuv_nKu2vud3">
    <mxGraphModel dx="2573" dy="983" grid="1" gridSize="10" guides="1" tooltips="1" connect="1" arrows="1" fold="1" page="1" pageScale="1" pageWidth="1169" pageHeight="827" math="0" shadow="0">
      <root>
        <mxCell id="0" />
        <mxCell id="1" parent="0" />
        <mxCell id="yeFFSYrdd0vnqSqL74DA-53" value="Screen Display&lt;div&gt;&lt;br&gt;&lt;/div&gt;&lt;div&gt;&lt;br&gt;&lt;/div&gt;&lt;div&gt;&lt;br&gt;&lt;/div&gt;&lt;div&gt;&lt;br&gt;&lt;/div&gt;&lt;div&gt;&lt;br&gt;&lt;/div&gt;&lt;div&gt;&lt;br&gt;&lt;/div&gt;&lt;div&gt;&lt;br&gt;&lt;/div&gt;&lt;div&gt;&lt;br&gt;&lt;/div&gt;&lt;div&gt;&lt;br&gt;&lt;/div&gt;&lt;div&gt;&lt;br&gt;&lt;/div&gt;&lt;div&gt;&lt;br&gt;&lt;/div&gt;&lt;div&gt;&lt;br&gt;&lt;/div&gt;&lt;div&gt;&lt;br&gt;&lt;/div&gt;&lt;div&gt;&lt;br&gt;&lt;/div&gt;&lt;div&gt;&lt;br&gt;&lt;/div&gt;&lt;div&gt;&lt;br&gt;&lt;/div&gt;&lt;div&gt;&lt;br&gt;&lt;/div&gt;&lt;div&gt;&lt;br&gt;&lt;/div&gt;&lt;div&gt;&lt;br&gt;&lt;/div&gt;&lt;div&gt;&lt;br&gt;&lt;/div&gt;&lt;div&gt;&lt;br&gt;&lt;/div&gt;&lt;div&gt;&lt;br&gt;&lt;/div&gt;" style="whiteSpace=wrap;html=1;aspect=fixed;dashed=1;align=center;verticalAlign=top;fillColor=#f5f5f5;strokeColor=#666666;fontColor=#333333;" parent="1" vertex="1">
          <mxGeometry x="1060" y="350" width="370" height="370" as="geometry" />
        </mxCell>
        <mxCell id="yeFFSYrdd0vnqSqL74DA-54" style="edgeStyle=orthogonalEdgeStyle;rounded=0;orthogonalLoop=1;jettySize=auto;html=1;exitX=0;exitY=1;exitDx=0;exitDy=0;entryX=0.104;entryY=0.036;entryDx=0;entryDy=0;entryPerimeter=0;" parent="1" source="yeFFSYrdd0vnqSqL74DA-55" target="yeFFSYrdd0vnqSqL74DA-58" edge="1">
          <mxGeometry relative="1" as="geometry">
            <Array as="points">
              <mxPoint x="1192" y="565" />
              <mxPoint x="1198" y="565" />
            </Array>
          </mxGeometry>
        </mxCell>
        <mxCell id="yeFFSYrdd0vnqSqL74DA-55" value="Timer0OverflowInterrupt" style="ellipse;whiteSpace=wrap;html=1;fillColor=#f5f5f5;fontColor=#333333;strokeColor=#666666;" parent="1" vertex="1">
          <mxGeometry x="1170" y="420" width="150" height="90" as="geometry" />
        </mxCell>
        <mxCell id="yeFFSYrdd0vnqSqL74DA-56" style="edgeStyle=orthogonalEdgeStyle;rounded=0;orthogonalLoop=1;jettySize=auto;html=1;exitX=0.75;exitY=0;exitDx=0;exitDy=0;entryX=1;entryY=1;entryDx=0;entryDy=0;" parent="1" source="yeFFSYrdd0vnqSqL74DA-58" target="yeFFSYrdd0vnqSqL74DA-55" edge="1">
          <mxGeometry relative="1" as="geometry">
            <Array as="points">
              <mxPoint x="1298" y="620" />
            </Array>
          </mxGeometry>
        </mxCell>
        <mxCell id="yeFFSYrdd0vnqSqL74DA-57" style="edgeStyle=orthogonalEdgeStyle;rounded=0;orthogonalLoop=1;jettySize=auto;html=1;exitX=0;exitY=0.5;exitDx=0;exitDy=0;entryX=1;entryY=0.5;entryDx=0;entryDy=0;fillColor=#ffcccc;strokeColor=#36393d;" parent="1" source="yeFFSYrdd0vnqSqL74DA-58" target="yeFFSYrdd0vnqSqL74DA-60" edge="1">
          <mxGeometry relative="1" as="geometry" />
        </mxCell>
        <mxCell id="yeFFSYrdd0vnqSqL74DA-58" value="DisplayLine" style="rounded=1;whiteSpace=wrap;html=1;fillColor=#f5f5f5;fontColor=#333333;strokeColor=#666666;" parent="1" vertex="1">
          <mxGeometry x="1185" y="620" width="120" height="60" as="geometry" />
        </mxCell>
        <mxCell id="yeFFSYrdd0vnqSqL74DA-59" style="edgeStyle=orthogonalEdgeStyle;rounded=0;orthogonalLoop=1;jettySize=auto;html=1;exitX=1;exitY=0.75;exitDx=0;exitDy=0;entryX=0.5;entryY=1;entryDx=0;entryDy=0;fillColor=#ffcccc;strokeColor=#36393d;" parent="1" source="yeFFSYrdd0vnqSqL74DA-60" target="yeFFSYrdd0vnqSqL74DA-58" edge="1">
          <mxGeometry relative="1" as="geometry">
            <Array as="points">
              <mxPoint x="1040" y="532" />
              <mxPoint x="1040" y="700" />
              <mxPoint x="1245" y="700" />
            </Array>
          </mxGeometry>
        </mxCell>
        <mxCell id="yeFFSYrdd0vnqSqL74DA-60" value="SRAM Memory Buffer" style="rounded=1;whiteSpace=wrap;html=1;fillColor=#ffcccc;strokeColor=#36393d;" parent="1" vertex="1">
          <mxGeometry x="810" y="450" width="170" height="110" as="geometry" />
        </mxCell>
        <mxCell id="yeFFSYrdd0vnqSqL74DA-61" style="edgeStyle=orthogonalEdgeStyle;rounded=0;orthogonalLoop=1;jettySize=auto;html=1;" parent="1" source="yeFFSYrdd0vnqSqL74DA-63" target="yeFFSYrdd0vnqSqL74DA-60" edge="1">
          <mxGeometry relative="1" as="geometry" />
        </mxCell>
        <mxCell id="yeFFSYrdd0vnqSqL74DA-62" value="" style="edgeStyle=orthogonalEdgeStyle;rounded=0;orthogonalLoop=1;jettySize=auto;html=1;" parent="1" source="yeFFSYrdd0vnqSqL74DA-63" target="yeFFSYrdd0vnqSqL74DA-66" edge="1">
          <mxGeometry relative="1" as="geometry" />
        </mxCell>
        <mxCell id="yeFFSYrdd0vnqSqL74DA-63" value="Start" style="rounded=1;whiteSpace=wrap;html=1;fillColor=#d5e8d4;strokeColor=#82b366;" parent="1" vertex="1">
          <mxGeometry x="835" y="210" width="185" height="90" as="geometry" />
        </mxCell>
        <mxCell id="yeFFSYrdd0vnqSqL74DA-64" value="nothing" style="edgeStyle=orthogonalEdgeStyle;rounded=0;orthogonalLoop=1;jettySize=auto;html=1;entryX=0;entryY=0.5;entryDx=0;entryDy=0;exitX=0.5;exitY=0;exitDx=0;exitDy=0;" parent="1" source="yeFFSYrdd0vnqSqL74DA-66" target="yeFFSYrdd0vnqSqL74DA-66" edge="1">
          <mxGeometry x="0.3182" y="20" relative="1" as="geometry">
            <mxPoint x="650" y="280" as="targetPoint" />
            <Array as="points">
              <mxPoint x="695" y="170" />
              <mxPoint x="590" y="170" />
              <mxPoint x="590" y="240" />
            </Array>
            <mxPoint as="offset" />
          </mxGeometry>
        </mxCell>
        <mxCell id="fqeI93_iT8ww7KWtf90p-2" style="edgeStyle=orthogonalEdgeStyle;rounded=0;orthogonalLoop=1;jettySize=auto;html=1;exitX=0.75;exitY=1;exitDx=0;exitDy=0;entryX=0.25;entryY=0;entryDx=0;entryDy=0;" edge="1" parent="1" source="yeFFSYrdd0vnqSqL74DA-66" target="yeFFSYrdd0vnqSqL74DA-83">
          <mxGeometry relative="1" as="geometry" />
        </mxCell>
        <mxCell id="yeFFSYrdd0vnqSqL74DA-66" value="ReaKeyBoard_Initial" style="rounded=1;whiteSpace=wrap;html=1;" parent="1" vertex="1">
          <mxGeometry x="635" y="210" width="120" height="60" as="geometry" />
        </mxCell>
        <mxCell id="yeFFSYrdd0vnqSqL74DA-67" value="1. Clear Buffer" style="edgeStyle=orthogonalEdgeStyle;rounded=0;orthogonalLoop=1;jettySize=auto;html=1;entryX=0;entryY=0;entryDx=0;entryDy=0;" parent="1" source="yeFFSYrdd0vnqSqL74DA-70" target="yeFFSYrdd0vnqSqL74DA-60" edge="1">
          <mxGeometry x="-0.1515" y="10" relative="1" as="geometry">
            <mxPoint as="offset" />
          </mxGeometry>
        </mxCell>
        <mxCell id="yeFFSYrdd0vnqSqL74DA-68" value="2. Init obstacle, snake and food" style="edgeStyle=orthogonalEdgeStyle;rounded=0;orthogonalLoop=1;jettySize=auto;html=1;exitX=1;exitY=1;exitDx=0;exitDy=0;entryX=0;entryY=0.25;entryDx=0;entryDy=0;" parent="1" source="yeFFSYrdd0vnqSqL74DA-70" target="yeFFSYrdd0vnqSqL74DA-60" edge="1">
          <mxGeometry x="0.084" y="18" relative="1" as="geometry">
            <mxPoint as="offset" />
          </mxGeometry>
        </mxCell>
        <mxCell id="yeFFSYrdd0vnqSqL74DA-69" value="3. Main&amp;nbsp;" style="edgeStyle=orthogonalEdgeStyle;rounded=0;orthogonalLoop=1;jettySize=auto;html=1;" parent="1" source="yeFFSYrdd0vnqSqL74DA-70" target="yeFFSYrdd0vnqSqL74DA-72" edge="1">
          <mxGeometry x="-0.0667" y="-20" relative="1" as="geometry">
            <mxPoint as="offset" />
          </mxGeometry>
        </mxCell>
        <mxCell id="yeFFSYrdd0vnqSqL74DA-70" value="Init" style="rounded=1;whiteSpace=wrap;html=1;" parent="1" vertex="1">
          <mxGeometry x="430" y="350" width="120" height="60" as="geometry" />
        </mxCell>
        <mxCell id="yeFFSYrdd0vnqSqL74DA-71" value="" style="edgeStyle=orthogonalEdgeStyle;rounded=0;orthogonalLoop=1;jettySize=auto;html=1;" parent="1" source="yeFFSYrdd0vnqSqL74DA-72" target="yeFFSYrdd0vnqSqL74DA-76" edge="1">
          <mxGeometry relative="1" as="geometry" />
        </mxCell>
        <mxCell id="yeFFSYrdd0vnqSqL74DA-72" value="Main" style="rounded=1;whiteSpace=wrap;html=1;fillColor=#dae8fc;strokeColor=#6c8ebf;" parent="1" vertex="1">
          <mxGeometry x="430" y="560" width="120" height="60" as="geometry" />
        </mxCell>
        <mxCell id="yeFFSYrdd0vnqSqL74DA-73" value="" style="edgeStyle=orthogonalEdgeStyle;rounded=0;orthogonalLoop=1;jettySize=auto;html=1;" parent="1" source="yeFFSYrdd0vnqSqL74DA-76" target="yeFFSYrdd0vnqSqL74DA-78" edge="1">
          <mxGeometry relative="1" as="geometry" />
        </mxCell>
        <mxCell id="yeFFSYrdd0vnqSqL74DA-75" style="edgeStyle=orthogonalEdgeStyle;rounded=0;orthogonalLoop=1;jettySize=auto;html=1;exitX=0;exitY=0.25;exitDx=0;exitDy=0;entryX=1;entryY=0;entryDx=0;entryDy=0;" parent="1" source="yeFFSYrdd0vnqSqL74DA-76" target="yeFFSYrdd0vnqSqL74DA-86" edge="1">
          <mxGeometry relative="1" as="geometry">
            <Array as="points">
              <mxPoint x="280" y="685" />
            </Array>
          </mxGeometry>
        </mxCell>
        <mxCell id="yeFFSYrdd0vnqSqL74DA-76" value="ReaKeyBoard" style="rounded=1;whiteSpace=wrap;html=1;fillColor=#dae8fc;strokeColor=#6c8ebf;" parent="1" vertex="1">
          <mxGeometry x="430" y="670" width="120" height="60" as="geometry" />
        </mxCell>
        <mxCell id="yeFFSYrdd0vnqSqL74DA-77" style="edgeStyle=orthogonalEdgeStyle;rounded=0;orthogonalLoop=1;jettySize=auto;html=1;exitX=0;exitY=1;exitDx=0;exitDy=0;entryX=0;entryY=0;entryDx=0;entryDy=0;" parent="1" source="yeFFSYrdd0vnqSqL74DA-78" target="yeFFSYrdd0vnqSqL74DA-82" edge="1">
          <mxGeometry relative="1" as="geometry">
            <mxPoint x="320" y="810" as="targetPoint" />
            <Array as="points">
              <mxPoint x="618" y="780" />
              <mxPoint x="530" y="780" />
              <mxPoint x="530" y="840" />
            </Array>
          </mxGeometry>
        </mxCell>
        <mxCell id="yeFFSYrdd0vnqSqL74DA-78" value="Delay&lt;div&gt;&lt;br&gt;&lt;/div&gt;" style="ellipse;whiteSpace=wrap;html=1;fillColor=#ffe6cc;strokeColor=#d79b00;" parent="1" vertex="1">
          <mxGeometry x="600" y="650" width="120" height="80" as="geometry" />
        </mxCell>
        <mxCell id="yeFFSYrdd0vnqSqL74DA-79" value="1." style="edgeStyle=orthogonalEdgeStyle;rounded=0;orthogonalLoop=1;jettySize=auto;html=1;exitX=0.75;exitY=0;exitDx=0;exitDy=0;" parent="1" source="yeFFSYrdd0vnqSqL74DA-82" target="yeFFSYrdd0vnqSqL74DA-90" edge="1">
          <mxGeometry x="-0.2083" y="15" relative="1" as="geometry">
            <mxPoint as="offset" />
          </mxGeometry>
        </mxCell>
        <mxCell id="yeFFSYrdd0vnqSqL74DA-80" value="2." style="edgeStyle=orthogonalEdgeStyle;rounded=0;orthogonalLoop=1;jettySize=auto;html=1;exitX=0.5;exitY=1;exitDx=0;exitDy=0;" parent="1" source="yeFFSYrdd0vnqSqL74DA-82" target="yeFFSYrdd0vnqSqL74DA-94" edge="1">
          <mxGeometry x="0.5714" y="14" relative="1" as="geometry">
            <mxPoint x="-4" y="-10" as="offset" />
          </mxGeometry>
        </mxCell>
        <mxCell id="yeFFSYrdd0vnqSqL74DA-81" value="When all is done" style="edgeStyle=orthogonalEdgeStyle;rounded=0;orthogonalLoop=1;jettySize=auto;html=1;exitX=0;exitY=0.5;exitDx=0;exitDy=0;entryX=0;entryY=0.25;entryDx=0;entryDy=0;" parent="1" source="yeFFSYrdd0vnqSqL74DA-82" target="yeFFSYrdd0vnqSqL74DA-72" edge="1">
          <mxGeometry x="-0.3245" y="-10" relative="1" as="geometry">
            <Array as="points">
              <mxPoint x="80" y="870" />
              <mxPoint x="80" y="575" />
            </Array>
            <mxPoint as="offset" />
          </mxGeometry>
        </mxCell>
        <mxCell id="yeFFSYrdd0vnqSqL74DA-82" value="SnakeMain" style="rounded=1;whiteSpace=wrap;html=1;fillColor=#dae8fc;strokeColor=#6c8ebf;" parent="1" vertex="1">
          <mxGeometry x="560" y="840" width="120" height="60" as="geometry" />
        </mxCell>
        <mxCell id="fqeI93_iT8ww7KWtf90p-3" style="edgeStyle=orthogonalEdgeStyle;rounded=0;orthogonalLoop=1;jettySize=auto;html=1;exitX=1;exitY=0.5;exitDx=0;exitDy=0;entryX=0.25;entryY=1;entryDx=0;entryDy=0;" edge="1" parent="1" source="yeFFSYrdd0vnqSqL74DA-83" target="yeFFSYrdd0vnqSqL74DA-63">
          <mxGeometry relative="1" as="geometry" />
        </mxCell>
        <mxCell id="yeFFSYrdd0vnqSqL74DA-83" value="Start Screen" style="rounded=0;whiteSpace=wrap;html=1;" parent="1" vertex="1">
          <mxGeometry x="720" y="290" width="90" height="30" as="geometry" />
        </mxCell>
        <mxCell id="fqeI93_iT8ww7KWtf90p-4" style="edgeStyle=orthogonalEdgeStyle;rounded=0;orthogonalLoop=1;jettySize=auto;html=1;exitX=0.5;exitY=1;exitDx=0;exitDy=0;entryX=0.5;entryY=0;entryDx=0;entryDy=0;" edge="1" parent="1" source="yeFFSYrdd0vnqSqL74DA-84" target="yeFFSYrdd0vnqSqL74DA-70">
          <mxGeometry relative="1" as="geometry" />
        </mxCell>
        <mxCell id="yeFFSYrdd0vnqSqL74DA-84" value="Play" style="rounded=0;whiteSpace=wrap;html=1;" parent="1" vertex="1">
          <mxGeometry x="585" y="290" width="90" height="30" as="geometry" />
        </mxCell>
        <mxCell id="yeFFSYrdd0vnqSqL74DA-85" value="RET" style="edgeStyle=orthogonalEdgeStyle;rounded=0;orthogonalLoop=1;jettySize=auto;html=1;exitX=1;exitY=0.5;exitDx=0;exitDy=0;entryX=0;entryY=0.75;entryDx=0;entryDy=0;" parent="1" source="yeFFSYrdd0vnqSqL74DA-86" target="yeFFSYrdd0vnqSqL74DA-76" edge="1">
          <mxGeometry x="-0.4199" y="-15" relative="1" as="geometry">
            <Array as="points">
              <mxPoint x="280" y="715" />
            </Array>
            <mxPoint as="offset" />
          </mxGeometry>
        </mxCell>
        <mxCell id="yeFFSYrdd0vnqSqL74DA-86" value="Update Direction&lt;br&gt;Or Pause" style="rounded=0;whiteSpace=wrap;html=1;" parent="1" vertex="1">
          <mxGeometry x="170" y="700" width="110" height="40" as="geometry" />
        </mxCell>
        <mxCell id="yeFFSYrdd0vnqSqL74DA-88" style="edgeStyle=orthogonalEdgeStyle;rounded=0;orthogonalLoop=1;jettySize=auto;html=1;entryX=0;entryY=1;entryDx=0;entryDy=0;" parent="1" source="yeFFSYrdd0vnqSqL74DA-90" target="yeFFSYrdd0vnqSqL74DA-60" edge="1">
          <mxGeometry relative="1" as="geometry" />
        </mxCell>
        <mxCell id="yeFFSYrdd0vnqSqL74DA-89" style="edgeStyle=orthogonalEdgeStyle;rounded=0;orthogonalLoop=1;jettySize=auto;html=1;exitX=0.75;exitY=1;exitDx=0;exitDy=0;entryX=1;entryY=0.75;entryDx=0;entryDy=0;" parent="1" source="yeFFSYrdd0vnqSqL74DA-90" target="yeFFSYrdd0vnqSqL74DA-82" edge="1">
          <mxGeometry relative="1" as="geometry" />
        </mxCell>
        <mxCell id="yeFFSYrdd0vnqSqL74DA-90" value="Clear Old Pos" style="rounded=1;whiteSpace=wrap;html=1;fillColor=#e1d5e7;strokeColor=#9673a6;" parent="1" vertex="1">
          <mxGeometry x="780" y="730" width="120" height="60" as="geometry" />
        </mxCell>
        <mxCell id="yeFFSYrdd0vnqSqL74DA-91" value="" style="edgeStyle=orthogonalEdgeStyle;rounded=0;orthogonalLoop=1;jettySize=auto;html=1;" parent="1" source="yeFFSYrdd0vnqSqL74DA-94" target="yeFFSYrdd0vnqSqL74DA-98" edge="1">
          <mxGeometry relative="1" as="geometry" />
        </mxCell>
        <mxCell id="yeFFSYrdd0vnqSqL74DA-92" style="edgeStyle=orthogonalEdgeStyle;rounded=0;orthogonalLoop=1;jettySize=auto;html=1;exitX=1;exitY=0;exitDx=0;exitDy=0;entryX=0.25;entryY=1;entryDx=0;entryDy=0;" parent="1" source="yeFFSYrdd0vnqSqL74DA-94" target="yeFFSYrdd0vnqSqL74DA-60" edge="1">
          <mxGeometry relative="1" as="geometry">
            <Array as="points">
              <mxPoint x="853" y="960" />
              <mxPoint x="853" y="910" />
              <mxPoint x="920" y="910" />
              <mxPoint x="920" y="600" />
              <mxPoint x="853" y="600" />
            </Array>
          </mxGeometry>
        </mxCell>
        <mxCell id="yeFFSYrdd0vnqSqL74DA-93" style="edgeStyle=orthogonalEdgeStyle;rounded=0;orthogonalLoop=1;jettySize=auto;html=1;entryX=0.25;entryY=1;entryDx=0;entryDy=0;exitX=0;exitY=0.5;exitDx=0;exitDy=0;" parent="1" source="yeFFSYrdd0vnqSqL74DA-94" target="yeFFSYrdd0vnqSqL74DA-82" edge="1">
          <mxGeometry relative="1" as="geometry" />
        </mxCell>
        <mxCell id="yeFFSYrdd0vnqSqL74DA-94" value="GetByteAndMask" style="whiteSpace=wrap;html=1;fillColor=#e1d5e7;strokeColor=#9673a6;rounded=1;" parent="1" vertex="1">
          <mxGeometry x="640" y="960" width="120" height="60" as="geometry" />
        </mxCell>
        <mxCell id="yeFFSYrdd0vnqSqL74DA-95" value="if food" style="edgeStyle=orthogonalEdgeStyle;rounded=0;orthogonalLoop=1;jettySize=auto;html=1;" parent="1" source="yeFFSYrdd0vnqSqL74DA-98" target="yeFFSYrdd0vnqSqL74DA-100" edge="1">
          <mxGeometry x="-0.1763" y="10" relative="1" as="geometry">
            <mxPoint as="offset" />
          </mxGeometry>
        </mxCell>
        <mxCell id="yeFFSYrdd0vnqSqL74DA-96" value="if wall" style="edgeStyle=orthogonalEdgeStyle;rounded=0;orthogonalLoop=1;jettySize=auto;html=1;exitX=1;exitY=0;exitDx=0;exitDy=0;" parent="1" source="yeFFSYrdd0vnqSqL74DA-98" target="yeFFSYrdd0vnqSqL74DA-102" edge="1">
          <mxGeometry x="-0.5462" y="18" relative="1" as="geometry">
            <mxPoint x="-10" y="3" as="offset" />
          </mxGeometry>
        </mxCell>
        <mxCell id="yeFFSYrdd0vnqSqL74DA-97" style="edgeStyle=orthogonalEdgeStyle;rounded=0;orthogonalLoop=1;jettySize=auto;html=1;entryX=0.5;entryY=1;entryDx=0;entryDy=0;" parent="1" source="yeFFSYrdd0vnqSqL74DA-98" target="yeFFSYrdd0vnqSqL74DA-94" edge="1">
          <mxGeometry relative="1" as="geometry" />
        </mxCell>
        <mxCell id="yeFFSYrdd0vnqSqL74DA-98" value="CheckCollision" style="whiteSpace=wrap;html=1;fillColor=#e1d5e7;strokeColor=#9673a6;rounded=1;" parent="1" vertex="1">
          <mxGeometry x="860" y="1080" width="120" height="60" as="geometry" />
        </mxCell>
        <mxCell id="yeFFSYrdd0vnqSqL74DA-99" style="edgeStyle=orthogonalEdgeStyle;rounded=0;orthogonalLoop=1;jettySize=auto;html=1;entryX=1;entryY=1;entryDx=0;entryDy=0;exitX=0;exitY=0.5;exitDx=0;exitDy=0;" parent="1" source="yeFFSYrdd0vnqSqL74DA-100" target="yeFFSYrdd0vnqSqL74DA-60" edge="1">
          <mxGeometry relative="1" as="geometry">
            <Array as="points">
              <mxPoint x="1010" y="820" />
              <mxPoint x="1010" y="560" />
            </Array>
          </mxGeometry>
        </mxCell>
        <mxCell id="yeFFSYrdd0vnqSqL74DA-100" value="GenerateFoodPos&lt;br&gt;+ score" style="whiteSpace=wrap;html=1;fillColor=#e1d5e7;strokeColor=#9673a6;rounded=1;" parent="1" vertex="1">
          <mxGeometry x="1231" y="790" width="120" height="60" as="geometry" />
        </mxCell>
        <mxCell id="yeFFSYrdd0vnqSqL74DA-101" style="edgeStyle=orthogonalEdgeStyle;rounded=0;orthogonalLoop=1;jettySize=auto;html=1;entryX=0.75;entryY=0;entryDx=0;entryDy=0;exitX=1;exitY=0.5;exitDx=0;exitDy=0;" parent="1" source="yeFFSYrdd0vnqSqL74DA-102" target="yeFFSYrdd0vnqSqL74DA-66" edge="1">
          <mxGeometry relative="1" as="geometry">
            <mxPoint x="1590" y="640.0000000000009" as="targetPoint" />
            <Array as="points">
              <mxPoint x="1580" y="940" />
              <mxPoint x="1580" y="190" />
              <mxPoint x="725" y="190" />
            </Array>
          </mxGeometry>
        </mxCell>
        <mxCell id="yeFFSYrdd0vnqSqL74DA-102" value="Game Over" style="whiteSpace=wrap;html=1;fillColor=#d5e8d4;strokeColor=#82b366;rounded=1;" parent="1" vertex="1">
          <mxGeometry x="1030" y="870" width="155" height="100" as="geometry" />
        </mxCell>
        <mxCell id="yeFFSYrdd0vnqSqL74DA-103" style="edgeStyle=orthogonalEdgeStyle;rounded=0;orthogonalLoop=1;jettySize=auto;html=1;entryX=0.815;entryY=0.969;entryDx=0;entryDy=0;entryPerimeter=0;exitX=0;exitY=0.5;exitDx=0;exitDy=0;" parent="1" source="yeFFSYrdd0vnqSqL74DA-102" target="yeFFSYrdd0vnqSqL74DA-60" edge="1">
          <mxGeometry relative="1" as="geometry">
            <Array as="points">
              <mxPoint x="970" y="940" />
              <mxPoint x="970" y="765" />
              <mxPoint x="948" y="765" />
            </Array>
          </mxGeometry>
        </mxCell>
        <mxCell id="yeFFSYrdd0vnqSqL74DA-104" style="edgeStyle=orthogonalEdgeStyle;rounded=0;orthogonalLoop=1;jettySize=auto;html=1;entryX=0.584;entryY=1.006;entryDx=0;entryDy=0;entryPerimeter=0;" parent="1" source="yeFFSYrdd0vnqSqL74DA-100" target="yeFFSYrdd0vnqSqL74DA-98" edge="1">
          <mxGeometry relative="1" as="geometry">
            <Array as="points">
              <mxPoint x="1310" y="910" />
              <mxPoint x="1310" y="1160" />
              <mxPoint x="930" y="1160" />
            </Array>
          </mxGeometry>
        </mxCell>
        <mxCell id="fqeI93_iT8ww7KWtf90p-1" style="edgeStyle=orthogonalEdgeStyle;rounded=0;orthogonalLoop=1;jettySize=auto;html=1;exitX=0.25;exitY=1;exitDx=0;exitDy=0;entryX=0.653;entryY=0.029;entryDx=0;entryDy=0;entryPerimeter=0;" edge="1" parent="1" source="yeFFSYrdd0vnqSqL74DA-66" target="yeFFSYrdd0vnqSqL74DA-84">
          <mxGeometry relative="1" as="geometry" />
        </mxCell>
      </root>
    </mxGraphModel>
  </diagram>
</mxfile>
